<mxfile host="app.diagrams.net" modified="2023-06-06T14:51:29.490Z" agent="Mozilla/5.0 (Windows NT 10.0; Win64; x64) AppleWebKit/537.36 (KHTML, like Gecko) Chrome/114.0.0.0 Safari/537.36" version="21.3.7" etag="vjzXGyJNDIGBV0ji-z3f" type="github">
  <diagram name="Страница 1" id="uaiWQuU0-h2k86Tyl6Gc">
    <mxGraphModel>
      <root>
        <mxCell id="0" />
        <mxCell id="1" parent="0" />
      </root>
    </mxGraphModel>
  </diagram>
</mxfile>
